<?xml version="1.0" encoding="UTF-8"?>
<svg width="175px" height="35px" viewBox="0 0 175 35" version="1.1" xmlns="http://www.w3.org/2000/svg" xmlns:xlink="http://www.w3.org/1999/xlink">
    <!-- Generator: Sketch 49 (51002) - http://www.bohemiancoding.com/sketch -->
    <title>Group 4</title>
    <desc>Created with Sketch.</desc>
    <defs></defs>
    <g id="Front-Page" stroke="none" stroke-width="1" fill="none" fill-rule="evenodd">
        <g id="Artboard-2-Copy" transform="translate(-213.000000, -16.000000)">
            <g id="Intro" transform="translate(-11.000000, 0.000000)">
                <g id="Header" transform="translate(224.000000, 14.000000)">
                    <g id="Group-3" transform="translate(0.000000, 2.000000)">
                        <g id="Group-4">
                            <g id="Logo">
                                <circle id="Oval" fill="#545E6B" cx="17.5" cy="17.5" r="17.5"></circle>
                                <g id="shop" transform="translate(9.000000, 11.000000)" fill="#FFFFFF" fill-rule="nonzero">
                                    <path d="M11.9816467,8.10526316 L9.65471698,8.10526316 C9.01787307,8.10526316 8.5,8.57130004 8.5,9.14439946 L8.5,10.7503374 C8.5,11.3234368 9.01787307,11.7894737 9.65471698,11.7894737 L11.9816467,11.7894737 C12.6184906,11.7894737 13.1363636,11.3234368 13.1363636,10.7503374 L13.1363636,9.14439946 C13.1363636,8.57130004 12.6184906,8.10526316 11.9816467,8.10526316 Z M12.2965695,10.7503374 C12.2965695,10.9077823 12.1531046,11.0337382 11.9816467,11.0337382 L9.65471698,11.0337382 C9.47975986,11.0337382 9.33979417,10.9046334 9.33979417,10.7503374 L9.33979417,9.14439946 C9.33979417,8.98695457 9.48325901,8.86099865 9.65471698,8.86099865 L11.9816467,8.86099865 C12.1566038,8.86099865 12.2965695,8.99010346 12.2965695,9.14439946 L12.2965695,10.7503374 Z" id="Shape"></path>
                                    <path d="M17,4.58694126 C17,4.51813714 16.9826318,4.45260941 16.9444217,4.39363445 L14.415611,0.199859583 C14.3426645,0.0786332787 14.2037188,0 14.0543523,0 L2.94217409,0 C2.79280752,0 2.65386187,0.0753568921 2.58091541,0.199859583 L0.0555782591,4.39363445 C0.0208418472,4.45260941 0,4.51813714 0,4.58694126 C0,5.52726422 0.600939926,6.33325532 1.4589293,6.69038147 L1.4589293,13.6068336 C1.4589293,13.8230751 1.64650593,14 1.87576624,14 L4.17879036,14 C4.182264,14 4.18573764,14 4.18921128,14 L7.41969759,14 C7.42317123,14 7.42664487,14 7.43011851,14 L15.1207601,14 C15.3500204,14 15.5375971,13.8230751 15.5375971,13.6068336 L15.5375971,6.73952726 C15.5375971,6.72314533 15.5375971,6.71003978 15.5341234,6.69693424 C16.3955864,6.3398081 17,5.5305406 17,4.58694126 Z M3.18532897,0.789609174 L13.8111974,0.789609174 L15.7876992,4.06927217 L1.21230078,4.06927217 L3.18532897,0.789609174 Z M12.0986923,4.85232857 C11.9666939,5.56002808 11.3101757,6.09735549 10.5216592,6.09735549 C9.73314262,6.09735549 9.07662444,5.56002808 8.94462607,4.85232857 L12.0986923,4.85232857 Z M8.05884757,4.85232857 C7.9268492,5.56002808 7.27033102,6.09735549 6.48181447,6.09735549 C5.69329792,6.09735549 5.03677973,5.56002808 4.90130772,4.85232857 L8.05884757,4.85232857 Z M0.861463016,4.85232857 L4.01900286,4.85232857 C3.8870045,5.56002808 3.22701267,6.09735549 2.43849612,6.09735549 C1.64997957,6.10063187 0.993461381,5.56002808 0.861463016,4.85232857 Z M7.00286065,13.2136672 L4.60604822,13.2136672 L4.60604822,8.97074655 C4.60604822,8.66276621 4.87004495,8.41048444 5.20004087,8.41048444 L6.41234164,8.41048444 C6.73886391,8.41048444 7.00633429,8.65948982 7.00633429,8.97074655 L7.00633429,13.2136672 L7.00286065,13.2136672 Z M14.7039232,13.2136672 L7.83653453,13.2136672 L7.83653453,8.97074655 C7.83653453,8.23028317 7.19738455,7.62415165 6.408868,7.62415165 L5.19656723,7.62415165 C4.41152432,7.62415165 3.76890069,8.22700679 3.76890069,8.97074655 L3.76890069,13.2169436 L2.29260319,13.2169436 L2.29260319,6.88368828 C2.34123416,6.88696466 2.38986514,6.88696466 2.43849612,6.88696466 C3.27911729,6.88696466 4.0224765,6.48396911 4.46015529,5.87128481 C4.89783408,6.48396911 5.6411933,6.88696466 6.48181447,6.88696466 C7.32243564,6.88696466 8.06232121,6.48396911 8.50347364,5.87128481 C8.94115243,6.48396911 9.68451165,6.88696466 10.5216592,6.88696466 C11.3622803,6.88696466 12.1021659,6.48396911 12.5398447,5.87128481 C12.9775235,6.48396911 13.7208827,6.88696466 14.5615039,6.88696466 C14.6101349,6.88696466 14.6552922,6.88368828 14.7039232,6.88368828 L14.7039232,13.2136672 Z M14.5615039,6.10063187 C13.7729873,6.10063187 13.1164691,5.56330447 12.9844708,4.85560496 L16.1420106,4.85560496 C16.0065386,5.56002808 15.3500204,6.10063187 14.5615039,6.10063187 Z" id="Shape"></path>
                                </g>
                            </g>
                            <text id="Storefront-Copy" font-family="BrandonGrotesque-Bold, Brandon Grotesque" font-size="18" font-weight="bold" letter-spacing="1.42499995" fill="#595959">
                                <tspan x="47" y="25">STOREFRONT</tspan>
                            </text>
                        </g>
                    </g>
                </g>
            </g>
        </g>
    </g>
</svg>